#!OML:ASF E:\Mandelcareful walks\Project 1\Capture day 1\Session 1\Subject1.ASF
:FULLY-SPECIFIED
:DEGREES
531
root -19.2783 15.2748 -0.140267 140.086 83.1979 121.667
lowerback 24.2041 -0.550934 -2.82655
upperback 5.85724 -0.931827 -0.0632125
thorax -6.95136 -0.215366 1.8005
lowerneck -27.9944 8.43084 1.98043
upperneck 12.3904 13.2477 -11.8718
head 9.4399 5.03569 -2.27031
rclavicle 1.98785e-015 1.74931e-014
rhumerus -11.1268 4.00319 -74.9316
rradius 74.7374
rwrist -12.6066
rhand -22.9554 -22.0463
rfingers 7.12502
rthumb 3.48622 668.002
lclavicle 1.98785e-015 1.74931e-014
lhumerus -4.45091 -28.3982 69.2191
lradius 64.2074
lwrist 12.1071
lhand -17.2585 -15.1446
lfingers 7.12502
lthumb 8.98592 14.644
rfemur -51.8399 -18.0234 7.03012
rtibia 54.1221
rfoot -15.3802 -3.70631
rtoes -10.9768
lfemur -45.3612 17.4233 -15.2323
ltibia 49.6862
lfoot -14.2125 1.08578
ltoes -12.5162
532
root -19.2587 15.2762 -0.110406 139.592 83.2822 121.119
lowerback 23.9721 -0.40501 -3.05058
upperback 5.96667 -0.781709 -0.0371615
thorax -6.71497 -0.144496 1.90992
lowerneck -27.8518 9.28147 2.75078
upperneck 12.6153 14.3195 -12.6054
head 9.70085 5.48 -2.44125
rclavicle -3.57812e-015 -3.49861e-014
rhumerus -11.1855 4.10699 -74.9572
rradius 74.6661
rwrist -12.9181
rhand -23.1399 -22.1527
rfingers 7.12502
rthumb 3.30799 667.893
lclavicle -3.57812e-015 -3.49861e-014
lhumerus -4.44289 -28.2975 69.5376
lradius 64.2144
lwrist 12.5911
lhand -17.5937 -15.6631
lfingers 7.12502
lthumb 8.66248 14.1392
rfemur -51.872 -17.6272 7.08568
rtibia 54.1771
rfoot -15.4541 -4.00729
rtoes -10.9526
lfemur -45.2641 17.5275 -15.0811
ltibia 49.5349
lfoot -14.2154 1.14646
ltoes -12.8508
533
root -19.2409 15.2792 -0.0901288 139.78 83.436 121.3
lowerback 24.6116 -0.328141 -3.02996
upperback 5.55076 -0.728567 -0.00375289
thorax -7.5034 -0.110224 1.92986
lowerneck -27.5399 10.3208 3.43786
upperneck 13.3132 15.6703 -12.9778
head 10.0994 6.06053 -2.41777
rclavicle 2.82274e-014 2.70347e-014
rhumerus -12.0468 4.38927 -75.1019
rradius 74.6784
rwrist -12.8556
rhand -23.1855 -21.5625
rfingers 7.12502
rthumb 3.26393 668.483
lclavicle 2.82274e-014 2.70347e-014
lhumerus -5.45728 -27.9982 70.3011
lradius 64.4278
lwrist 12.6192
lhand -17.8618 -16.0383
lfingers 7.12502
lthumb 8.40368 13.7745
rfemur -51.8593 -17.3288 7.24516
rtibia 54.2254
rfoot -15.5094 -4.21304
rtoes -10.7325
lfemur -45.1105 17.6181 -14.8419
ltibia 49.3836
lfoot -14.215 1.18961
ltoes -13.1202
534
root -19.2271 15.2839 -0.0811229 139.088 83.3903 120.572
lowerback 24.4674 -0.282014 -2.93853
upperback 5.65714 -0.643052 -0.110193
thorax -7.31977 -0.0732213 1.7327
lowerneck -27.2032 11.3399 4.09555
upperneck 13.4432 16.9726 -13.474
head 10.3139 6.64147 -2.43572
rclavicle -2.5842e-014 -1.31198e-014
rhumerus -12.0885 4.16491 -75.2371
rradius 74.5906
rwrist -12.8154
rhand -23.2943 -21.1579
rfingers 7.12502
rthumb 3.15893 668.886
lclavicle -2.5842e-014 -1.31198e-014
lhumerus -5.3295 -27.593 70.6329
lradius 64.3841
lwrist 12.5303
lhand -18.3191 -16.3681
lfingers 7.12502
lthumb 7.96236 13.4619
rfemur -51.8821 -17.3396 7.19529
rtibia 54.2582
rfoot -15.5526 -4.17439
rtoes -10.4013
lfemur -45.0139 17.5902 -14.9122
ltibia 49.2447
lfoot -14.1589 1.3138
ltoes -13.5085
535
root -19.2142 15.2873 -0.0751047 137.927 83.2511 119.347
lowerback 24.3469 -0.211132 -2.95466
upperback 5.69632 -0.561081 -0.24431
thorax -7.22047 -0.0356925 1.56938
lowerneck -26.5718 12.4635 5.06513
upperneck 13.6418 18.3875 -14.1653
head 10.5849 7.27447 -2.54144
rclavicle -1.03368e-014 2.66371e-014
rhumerus -12.2019 3.95251 -75.3441
rradius 74.578
rwrist -12.9695
rhand -23.3604 -21.4985
rfingers 7.12502
rthumb 3.09503 668.544
lclavicle -1.03368e-014 2.66371e-014
lhumerus -5.30458 -27.2253 71.0507
lradius 64.364
lwrist 12.6713
lhand -18.984 -16.5277
lfingers 7.12502
lthumb 7.32064 13.3257
rfemur -51.9148 -17.4606 7.04743
rtibia 54.2655
rfoot -15.4391 -4.04398
rtoes -10.0337
lfemur -44.9462 17.507 -15.0927
ltibia 49.1335
lfoot -14.1885 1.421
ltoes -13.3046
536
root -19.2018 15.2908 -0.0709346 138.054 83.2589 119.407
lowerback 24.2642 -0.154257 -2.7653
upperback 5.71773 -0.443245 -0.296363
thorax -7.16355 0.0164469 1.36846
lowerneck -25.5059 13.6105 6.16565
upperneck 13.3091 19.8121 -15.1273
head 10.6659 7.94956 -2.76515
rclavicle -1.70955e-014 -2.5842e-014
rhumerus -12.292 3.75941 -75.3694
rradius 74.5271
rwrist -13.0361
rhand -23.1288 -21.5389
rfingers 7.12502
rthumb 3.31874 668.507
lclavicle -1.70955e-014 -2.5842e-014
lhumerus -5.4485 -26.7859 71.571
lradius 64.6002
lwrist 12.8737
lhand -19.684 -16.5812
lfingers 7.12502
lthumb 6.64486 13.2946
rfemur -51.94 -17.5423 7.12624
rtibia 54.2424
rfoot -15.3612 -3.96072
rtoes -9.51186
lfemur -44.9183 17.4544 -15.0482
ltibia 49.052
lfoot -14.2635 1.51699
ltoes -13.2091
537
root -19.19 15.2947 -0.0670201 137.941 83.2916 119.192
lowerback 24.2195 -0.0804204 -2.57831
upperback 5.6674 -0.312732 -0.350432
thorax -7.20462 0.0744949 1.16367
lowerneck -24.3788 14.6996 7.11778
upperneck 13.0587 21.195 -15.8654
head 10.7429 8.62306 -2.89436
rclavicle -2.42517e-014 -1.82882e-014
rhumerus -12.5422 3.58972 -75.3563
rradius 74.5733
rwrist -13.0506
rhand -22.9767 -21.4383
rfingers 7.12502
rthumb 3.4656 668.61
lclavicle -2.42517e-014 -1.82882e-014
lhumerus -5.68198 -26.2551 72.165
lradius 64.8147
lwrist 12.9798
lhand -20.8024 -17.2672
lfingers 7.12502
lthumb 5.56513 12.6397
rfemur -52.0089 -17.5489 7.17682
rtibia 54.1922
rfoot -15.3356 -3.92027
rtoes -8.93465
lfemur -44.9494 17.4569 -15.0277
ltibia 48.989
lfoot -14.3085 1.57183
ltoes -13.3404
538
root -19.1774 15.2969 -0.0605831 137.393 83.2907 118.581
lowerback 24.2416 0.004538 -2.46506
upperback 5.60577 -0.190106 -0.435468
thorax -7.29021 0.130476 0.969568
lowerneck -23.1308 15.6744 8.01788
upperneck 12.7141 22.4486 -16.589
head 10.7646 9.25398 -3.03958
rclavicle -2.34566e-014 -5.725e-014
rhumerus -12.9769 3.40631 -75.3265
rradius 74.8357
rwrist -13.1583
rhand -23.1002 -21.7893
rfingers 7.12502
rthumb 3.34637 668.257
lclavicle -2.34566e-014 -5.725e-014
lhumerus -5.81338 -25.7155 72.6837
lradius 64.9229
lwrist 13.1776
lhand -21.997 -18.2006
lfingers 7.12502
lthumb 4.41164 11.7335
rfemur -52.0425 -17.5116 7.16277
rtibia 54.1396
rfoot -15.3683 -3.92289
rtoes -9.03717
lfemur -44.9139 17.4456 -15.0252
ltibia 48.9344
lfoot -14.3142 1.53578
ltoes -12.9012
539
root -19.1648 15.2981 -0.0526314 137.801 83.3378 119.001
lowerback 24.2804 0.07544 -2.2631
upperback 5.60792 -0.0529737 -0.464891
thorax -7.31379 0.19296 0.780848
lowerneck -22.3229 16.5166 8.57386
upperneck 12.624 23.6104 -17.0682
head 10.882 9.81163 -3.04658
rclavicle -9.14409e-015 -7.55382e-015
rhumerus -13.0552 3.19029 -75.2978
rradius 74.7822
rwrist -13.1802
rhand -23.2965 -22.327
rfingers 7.12502
rthumb 3.15681 667.717
lclavicle -9.14409e-015 -7.55382e-015
lhumerus -5.78233 -25.1952 73.2038
lradius 65.0157
lwrist 13.5619
lhand -22.6797 -18.2605
lfingers 7.12502
lthumb 3.7524 11.6862
rfemur -51.9912 -17.4836 7.29443
rtibia 54.1107
rfoot -15.4303 -4.01105
rtoes -9.41594
lfemur -44.7958 17.3639 -14.8486
ltibia 48.8736
lfoot -14.3077 1.51983
ltoes -12.5778
540
root -19.1534 15.2994 -0.0464251 138.337 83.2958 119.476
lowerback 24.2327 0.1321 -2.07979
upperback 5.60482 0.0607272 -0.510976
thorax -7.29712 0.243548 0.591738
lowerneck -21.0712 17.3069 8.77486
upperneck 11.9802 24.738 -17.5768
head 10.6884 10.4119 -3.05683
rclavicle -5.56597e-015 -1.63003e-014
rhumerus -13.2564 3.0284 -75.222
rradius 74.818
rwrist -13.1953
rhand -23.4386 -22.5133
rfingers 7.12502
rthumb 3.01956 667.528
lclavicle -5.56597e-015 -1.63003e-014
lhumerus -5.73971 -24.8132 73.6826
lradius 65.172
lwrist 14.0623
lhand -23.4234 -17.6705
lfingers 7.12502
lthumb 3.03425 12.2876
rfemur -52.0029 -17.5573 7.36879
rtibia 54.1167
rfoot -15.5153 -4.0798
rtoes -9.46829
lfemur -44.775 17.1974 -14.7713
ltibia 48.8022
lfoot -14.3447 1.60864
ltoes -12.5638
541
root -19.1398 15.3023 -0.0401375 138.611 83.2544 119.624
lowerback 24.1058 0.187705 -1.93595
upperback 5.59293 0.161226 -0.578879
thorax -7.24818 0.287389 0.405969
lowerneck -20.3637 17.8762 9.25963
upperneck 11.7767 25.5196 -18.0275
head 10.7373 10.8038 -3.12222
rclavicle 3.57812e-015 1.63003e-014
rhumerus -13.4253 2.88739 -75.1614
rradius 74.8143
rwrist -13.2715
rhand -23.452 -22.5481
rfingers 7.12502
rthumb 3.00655 667.493
lclavicle 3.57812e-015 1.63003e-014
lhumerus -5.73805 -24.4863 73.9943
lradius 65.426
lwrist 14.6103
lhand -23.8757 -17.2157
lfingers 7.12502
lthumb 2.59743 12.7483
rfemur -52.0953 -17.633 7.42786
rtibia 54.156
rfoot -15.6794 -4.12879
rtoes -9.80544
lfemur -44.811 17.0457 -14.7482
ltibia 48.7246
lfoot -14.3612 1.79087
ltoes -12.3925
542
root -19.1247 15.3066 -0.034398 138.704 83.2993 119.63
lowerback 24.0009 0.250454 -1.82247
upperback 5.58651 0.266753 -0.604816
thorax -7.20385 0.334442 0.282274
lowerneck -19.7604 18.3448 9.81926
upperneck 11.5462 26.1831 -18.6466
head 10.8271 11.1259 -3.26639
rclavicle -3.18055e-015 3.18055e-015
rhumerus -13.5255 2.80023 -75.095
rradius 74.7193
rwrist -13.3157
rhand -23.4293 -22.6302
rfingers 7.12502
rthumb 3.02849 667.412
lclavicle -3.18055e-015 3.18055e-015
lhumerus -5.70288 -24.041 74.3192
lradius 65.6041
lwrist 15.3954
lhand -23.8043 -17.0313
lfingers 7.12502
lthumb 2.66632 12.9318
rfemur -52.1634 -17.6169 7.52056
rtibia 54.1936
rfoot -15.7875 -4.1505
rtoes -10.2591
lfemur -44.7984 16.9971 -14.6802
ltibia 48.6511
lfoot -14.3664 1.95661
ltoes -12.4645
543
root -19.1103 15.3083 -0.0299874 137.955 83.227 118.8
lowerback 23.9197 0.31787 -1.85108
upperback 5.54155 0.337542 -0.669522
thorax -7.2128 0.366731 0.207651
lowerneck -18.9401 18.7421 10.4151
upperneck 11.1566 26.7647 -19.4058
head 10.8503 11.4292 -3.49248
rclavicle 3.57812e-015 1.94809e-014
rhumerus -13.7028 2.76548 -75.0343
rradius 74.6142
rwrist -13.3124
rhand -23.3342 -22.4214
rfingers 7.12502
rthumb 3.12039 667.622
lclavicle 3.57812e-015 1.94809e-014
lhumerus -5.7063 -23.7208 74.6522
lradius 65.7039
lwrist 16.1331
lhand -24.1096 -16.8779
lfingers 7.12502
lthumb 2.37151 13.0886
rfemur -52.2189 -17.6476 7.42661
rtibia 54.2093
rfoot -15.7562 -4.10071
rtoes -10.3953
lfemur -44.7828 16.9623 -14.7927
ltibia 48.5872
lfoot -14.4113 2.0034
ltoes -12.5624
544
root -19.0964 15.3073 -0.0246947 137.308 83.1264 118.091
lowerback 23.8307 0.379955 -1.85286
upperback 5.51903 0.407776 -0.767997
thorax -7.19256 0.398817 0.081302
lowerneck -18.3277 19.0684 10.9427
upperneck 10.9121 27.2476 -20.0101
head 10.917 11.6752 -3.66719
rclavicle 3.57812e-015 -9.14409e-015
rhumerus -13.8838 2.71271 -74.971
rradius 74.5423
rwrist -13.3242
rhand -23.2803 -22.3094
rfingers 7.12502
rthumb 3.17244 667.734
lclavicle 3.57812e-015 -9.14409e-015
lhumerus -5.77366 -23.6144 74.8419
lradius 65.8864
lwrist 16.3287
lhand -24.7859 -16.7548
lfingers 7.12502
lthumb 1.71834 13.218
rfemur -52.231 -17.6953 7.31158
rtibia 54.2034
rfoot -15.7691 -4.06693
rtoes -10.0572
lfemur -44.7505 16.9368 -14.9191
ltibia 48.53
lfoot -14.4021 2.02915
ltoes -12.6234
